<svg xmlns="http://www.w3.org/2000/svg" width="433.781" height="195.534" viewBox="0 0 433.781 195.534">
  <g id="グループ_35" data-name="グループ 35" transform="translate(-42 -26)">
    <text id="京都の傘ブランド" transform="translate(240.508 197.534)" fill="#cc8c8c" font-size="29" font-family="YuKyo_Yoko-Bold, YuKyokasho Yoko" font-weight="700"><tspan x="0" y="0">京都の傘ブランド</tspan></text>
    <path id="中マド_2" data-name="中マド 2" d="M97.849,195.534a98.65,98.65,0,0,1-19.72-1.986,97.358,97.358,0,0,1-34.988-14.711A98.064,98.064,0,0,1,7.689,135.822a97.216,97.216,0,0,1-5.7-18.352,98.641,98.641,0,0,1,0-39.407A97.19,97.19,0,0,1,16.711,43.1,98.124,98.124,0,0,1,59.762,7.683a97.421,97.421,0,0,1,18.367-5.7,98.885,98.885,0,0,1,39.44,0A97.355,97.355,0,0,1,152.557,16.7a98.062,98.062,0,0,1,35.451,43.015,97.217,97.217,0,0,1,5.7,18.352,98.417,98.417,0,0,1,1.988,19.7c0,2.648-.107,5.321-.319,7.945a160.22,160.22,0,0,1-18.7,8.187c.073-8.842.285-19.07.666-32.19a9.354,9.354,0,0,1,.741-3.848,4.816,4.816,0,0,0,.444-1.924c0-.3-.144-.9-1.11-1.628-2.031-1.47-5.479-3.108-7.178-3.108-.92,0-1.406.358-1.406,1.036a4.671,4.671,0,0,0,.3,1.406c.736,1.88,1.036,4.41,1.036,8.732,0,12.3,0,20.425-.149,31.524a4.634,4.634,0,0,1-.591,2.59,1.967,1.967,0,0,0-.445,1.332c0,.468.169,1.33,1.628,3.4,1.55,2.141,2.218,2.664,3.4,2.664.689,0,1.137-.249,2-1.11a7.226,7.226,0,0,1,2.22-1.48,158.777,158.777,0,0,0,16.257-8.112,96.827,96.827,0,0,1-11.361,32.555,97.736,97.736,0,0,1-85.278,49.792Zm2.312-117.006c-.834,0-1.332.387-1.332,1.036A11.545,11.545,0,0,1,99.42,82.6a11.064,11.064,0,0,1-.591,3.626,74.319,74.319,0,0,1-15.984,29.23,2.514,2.514,0,0,0-.741,1.7,1.261,1.261,0,0,0,1.111,1.11,3.467,3.467,0,0,0,1.849-.666A48.75,48.75,0,0,0,97.58,105.242a82.384,82.384,0,0,0,8.8-17.02,6.965,6.965,0,0,1,1.407-2.368,2.925,2.925,0,0,0,.814-2,2.634,2.634,0,0,0-1.332-2C103.859,79.4,101.362,78.528,100.161,78.528Zm20.2.222a1.248,1.248,0,0,0-1.332,1.183,2.388,2.388,0,0,0,.592,1.406,100.128,100.128,0,0,1,9.1,15.763,134.081,134.081,0,0,1,5.92,15.984c.693,2.386,2.164,3.7,4.144,3.7a3.709,3.709,0,0,0,3.08-1.3,5,5,0,0,0,.916-3.136c0-4.333-2.508-10.448-7.252-17.686a72.527,72.527,0,0,0-12.8-14.8A3.487,3.487,0,0,0,120.362,78.75Zm205.674,52.465c-1.7,0-2.886-3.073-2.886-7.474V115.6c-8.825.7-16.768,1.446-23.606,2.22a2.049,2.049,0,0,1-1.627-.814c-1.787-1.787-2.516-2.815-2.516-3.551,0-.511.346-.664,1.85-.814,7.817-.635,16.047-1.223,25.9-1.85l.075-21.682c0-4.576-.31-7.209-1.037-8.806a2.578,2.578,0,0,1-.221-.962c0-.589.373-.887,1.11-.887a20.313,20.313,0,0,1,4.811,1.257c.856.335,2.293,1.06,2.293,2.146a4.56,4.56,0,0,1-.444,1.924,10.92,10.92,0,0,0-.517,3.4v23.236c4.845-.249,9.5-.444,14.011-.633l.069,0,2.495-.1A10.735,10.735,0,0,0,350.6,108.5c3.67,0,7.4,2.8,7.4,4.366s-1,2.146-3.7,2.146c-4.171-.215-7.521-.3-12.358-.3-3.6,0-8.122.184-12.728.518v8.214a14.918,14.918,0,0,1-.925,5.661C327.716,130.467,326.914,131.215,326.037,131.215Zm53.354-2h0c-.987,0-1.586-.48-2.885-1.924-1.241-1.387-1.628-1.915-1.628-2.516,0-.376.324-.52,1.332-.592,9.159-.818,15.686-1.365,21.163-1.776v-6.66c-4.174.25-7.877.564-11.322.962-.812,0-1.26-.374-2.664-2.22-.99-1.294-1.184-1.794-1.184-2.22,0-.371.442-.592,1.184-.592,3.111-.141,6.167-.311,9.123-.475,1.7-.094,3.3-.183,4.863-.264,0-3.712-.079-4.829-.444-6.29l-3.848.3c-.151,1.668-.9,2.664-2,2.664-1.754,0-3-1.145-3.7-3.4a64.939,64.939,0,0,0-.592-6.882c-.447-3.952-.905-5.144-1.553-6.512a2.448,2.448,0,0,1-.37-1.111c0-.3.456-.518,1.11-.518a10.463,10.463,0,0,1,4.366,1.258c6.255-.688,11.193-1.158,15.54-1.48,2.076-.143,2.936-.2,4.366-1.332a11.728,11.728,0,0,1,4.144,1.85c1.681,1.169,2.22,1.834,2.22,2.738a2.518,2.518,0,0,1-.962,1.776,4.833,4.833,0,0,0-1.183,1.924l-.23.615-.05.134c-.524,1.4-.977,2.612-1.422,3.691,1.126.723,1.628,1.386,1.628,2.146,0,1.079-.822,1.48-3.034,1.48l-.38.009c-3.191.073-6.489.148-9.832.361,2.659,1.216,3.108,1.805,3.108,2.664a5.009,5.009,0,0,1-.592,1.85l-.074,1.628,4.07-.37a12.761,12.761,0,0,0,4.884-1.332,10.289,10.289,0,0,1,4.948,1.785,3.4,3.4,0,0,1,1.563,2.507c0,1.428-1.289,1.63-3.255,1.776-4.2.147-8.313.3-12.359.518l-.221,6.66c4.154-.227,7.518-.372,10.286-.445a19.369,19.369,0,0,0,6.142-.962,13.63,13.63,0,0,1,5.605,1.9c1.4.915,2.164,2,2.164,3.062,0,1.413-.729,2.072-2.293,2.072a115.55,115.55,0,0,0-15.318-.814A260.4,260.4,0,0,0,379.39,129.217Zm28.934-36.186c-5.6.24-11.26.846-16.058,1.407l.592,6.438c1.5-.117,3.017-.243,4.486-.364h.011c3.227-.267,6.564-.542,9.859-.745.572-2.789.956-5.118,1.11-6.735ZM258.3,124.164h0c-1.171,0-1.95-.2-1.95-1.17,0-.464.4-.805,1.3-1.105a35.853,35.853,0,0,0,8.107-3.658,21.463,21.463,0,0,0,5.413-4.743,17.63,17.63,0,0,0,3.025-5.694,21.649,21.649,0,0,0,.94-6.51c0-10.149-6.5-16.574-16.965-16.77,1.868,1.94,2.665,3.145,2.665,4.03a6.772,6.772,0,0,1-1.105,3.51,163.145,163.145,0,0,1-12.025,24.44c-1.815,2.891-3.382,3.965-5.784,3.965a3.8,3.8,0,0,1-2.95-1.17,11.9,11.9,0,0,1-2.121-3.705,15.183,15.183,0,0,0-2.86-4.874c-1.427-1.632-1.885-3.259-1.885-6.7a18.987,18.987,0,0,1,2.117-8.645,23.308,23.308,0,0,1,5.8-7.231,28.087,28.087,0,0,1,8.649-4.964,31.259,31.259,0,0,1,10.672-1.844A23.833,23.833,0,0,1,275.4,87.057a19.34,19.34,0,0,1,4.8,6.639,21.482,21.482,0,0,1,1.752,8.693,20.885,20.885,0,0,1-1.86,8.9,18.869,18.869,0,0,1-5.071,6.516c-4.078,3.405-9.863,5.6-16.729,6.354h0ZM255.048,84.9a22.188,22.188,0,0,0-12.464,7,19.116,19.116,0,0,0-5.151,12.7,11.646,11.646,0,0,0,3.316,8.45c.725.725.985.779,1.3.779a2.05,2.05,0,0,0,1.56-1.17,167.155,167.155,0,0,0,10.661-22.815,11.009,11.009,0,0,0,.845-3.77A6.258,6.258,0,0,0,255.048,84.9Zm-60.561,28.284v0c.391-2.465.691-4.979.891-7.472a115.133,115.133,0,0,0,16.6-10.461,3.492,3.492,0,0,1,2-1.036A1.488,1.488,0,0,1,215.23,95.4a1.946,1.946,0,0,1-.517,1.406c-5.1,6.069-11.714,11.427-20.224,16.38Zm105.649-3.061c-.649,0-1.036-.277-1.036-.74a1.306,1.306,0,0,1,.666-.962c3.468-2.407,8.292-6.636,10.36-9.546l.106-.159a6.53,6.53,0,0,0,1.522-3.911.776.776,0,0,1,.814-.592,5.69,5.69,0,0,1,2.738,1.332c1.747,1.456,2.368,2.066,2.368,2.59a1.424,1.424,0,0,1-.666,1.184c-.713.642-1.466,1.319-2.146,1.924a13.445,13.445,0,0,1,5.92,2.886,3.419,3.419,0,0,1,1.184,2.368,2.219,2.219,0,0,1-2.368,2.368c-1.146,0-1.889-.321-3.256-2.22-.848-1.109-1.938-2.367-3.33-3.848a44.322,44.322,0,0,1-12.062,7.178A3.775,3.775,0,0,1,300.137,110.126Zm46.25-1.258c-.86,0-1.614-.6-2.754-1.51l-.03-.024-.4-.316c-1.544-1.311-3.669-2.9-5.18-4a27.338,27.338,0,0,1-6.29,5.328,2.179,2.179,0,0,1-1.036.371.845.845,0,0,1-.888-.815,1.761,1.761,0,0,1,.445-1.036,28.747,28.747,0,0,0,4.366-7.178,10.112,10.112,0,0,0,.887-4.144.91.91,0,0,1,.888-.962c.443,0,1.393.321,3.4,1.85,1,.771,1.554,1.506,1.554,2.072a1.631,1.631,0,0,1-.592,1.332,15.532,15.532,0,0,0-1.183,1.332,22.5,22.5,0,0,1,6.585,1.776c1.792.965,2.739,2.193,2.739,3.552A2.291,2.291,0,0,1,346.387,108.868ZM300.951,97.989a.867.867,0,0,1-.962-.814,1.52,1.52,0,0,1,.666-1.11,52.886,52.886,0,0,0,9.694-9.324,12.487,12.487,0,0,0,1.7-2.96,3.609,3.609,0,0,0,.222-1.332,88.323,88.323,0,0,1-18.352,9.176l-.008,0a2.159,2.159,0,0,1-.658.146.9.9,0,0,1-.888-.888,1.328,1.328,0,0,1,.74-1.11,116.114,116.114,0,0,0,15.688-10.5,80.046,80.046,0,0,0,11.47-11.109,5.791,5.791,0,0,0,1.332-2.443,13.225,13.225,0,0,0,.148-2.368c0-.54.324-.814.962-.814A8.566,8.566,0,0,1,327,64.468c1.985,1.526,2.59,2.166,2.59,2.738a2.235,2.235,0,0,1-.666,1.554c6.068,4.14,10.725,7.035,19.166,11.913a67.873,67.873,0,0,0,6.956,3.4c2.422,1.027,4.015,1.751,5.846,2.589,1.037.479,1.48.922,1.48,1.48,0,.524-.5.912-1.628,1.258a29.533,29.533,0,0,1-8.436,1.11,5.467,5.467,0,0,1-3.4-1.258c-5.649-4.507-11.679-9.214-17.51-13.765l-.2-.155q-2.526-1.972-5.009-3.913a85.04,85.04,0,0,1-12.432,10.064,9.326,9.326,0,0,1,2.516,1.7c1.365,1.285,1.849,2.039,1.849,2.294a2.086,2.086,0,0,1-.74,1.48c-.353.3-.565.5-.95.856-.179.166-.394.365-.678.625a12.916,12.916,0,0,1,5.032,2.664,3.5,3.5,0,0,1,1.036,2.516,2.222,2.222,0,0,1-2.442,2.294c-1.213,0-1.728-.258-3.034-2.072-.8-1.012-1.711-2.14-2.738-3.4a48.389,48.389,0,0,1-11.767,7.326A1.984,1.984,0,0,1,300.951,97.989Zm72.519-.518a2.889,2.889,0,0,1-2.4-1.332,5.148,5.148,0,0,1-.851-2.886c0-1.423.3-1.933,1.257-3.33a12.79,12.79,0,0,0,1.767-4.107,19.53,19.53,0,0,0,.6-4.773c0-1.13.16-1.406.814-1.406.579,0,2.206,1.525,3.182,3.552,1.3-.148,2.621-.3,3.9-.449l.024,0h.006c5.115-.593,10.4-1.206,15.606-1.619V74.679c0-5.527-.88-8.1-1.258-8.954a2.532,2.532,0,0,1-.221-.961c0-.586.29-.815,1.036-.815a20.12,20.12,0,0,1,7.03,2.072,1.683,1.683,0,0,1,1.036,1.628,5.448,5.448,0,0,1-.37,1.7,16.311,16.311,0,0,0-1.11,5.846l-.148,5.4c6.2-.51,11.881-.883,16.872-1.11a17.787,17.787,0,0,0,5.476-.888,17.114,17.114,0,0,1,4.958,3.256c1.947,1.668,3.109,3.384,3.109,4.588,0,1.1-.917,1.879-2.886,2.442a48.248,48.248,0,0,1-9.1,1.776c-.48,0-.814-.243-.814-.591a1.671,1.671,0,0,1,.333-.976l.037-.061.388-.57a36.194,36.194,0,0,0,2.5-4.018A343.747,343.747,0,0,0,378.428,88a17.193,17.193,0,0,1-1.674,7.067C375.885,96.64,374.75,97.472,373.47,97.472ZM347.423,97.4c-.859,0-1.611-.6-2.749-1.507l-.432-.343c-1.494-1.27-4.6-3.633-6.512-4.958a40.284,40.284,0,0,1-6.068,5.477,1.627,1.627,0,0,1-1.036.37.741.741,0,0,1-.814-.815,1.627,1.627,0,0,1,.37-1.036,36.314,36.314,0,0,0,4.292-7.326,11.472,11.472,0,0,0,.888-3.922,6.32,6.32,0,0,0-.148-1.184c0-.47.323-.74.887-.74a8.545,8.545,0,0,1,3.256,1.553c1.651,1.127,2,1.869,2,2.294,0,.9-.721,1.811-1.718,3.07l-.206.26a21.194,21.194,0,0,1,7.771,2.294c1.915,1.1,2.885,2.424,2.885,3.922A2.514,2.514,0,0,1,347.423,97.4Zm42.7-17.168a4.055,4.055,0,0,1-3.181-1.48,63.8,63.8,0,0,1-4.811-7.4,1.7,1.7,0,0,1-.3-1.036c0-.247.171-.666.814-.666,1.566,0,5.55,1.7,7.1,3.034,1.992,1.593,2.96,3.094,2.96,4.588a3.457,3.457,0,0,1-.685,1.9A2.382,2.382,0,0,1,390.12,80.23ZM408.4,79.12a.833.833,0,0,1-.74-.888c0-.448.223-.741.815-1.406a44.074,44.074,0,0,0,4.81-6.586,4.3,4.3,0,0,0,.592-2.22,5.25,5.25,0,0,0-.074-1.036.855.855,0,0,1,.961-.814c.769,0,2.823.749,5.328,2.812a3.9,3.9,0,0,1,1.481,2.516c0,.731-.365,1.181-1.258,1.553A38.5,38.5,0,0,1,409.657,78.9,3.483,3.483,0,0,1,408.4,79.12Z" transform="translate(42 26)" fill="#cc8c8c"/>
  </g>
</svg>
