<svg xmlns="http://www.w3.org/2000/svg" width="4691.499" height="892" viewBox="0 0 4691.499 892"><g transform="translate(13318.55 -5376)"><path d="M25.46-101.08,91.96-266h252.7L237.12,0H152.76l50.92-125.78h-83.6l-9.88,24.7Zm110.58-63.84h83.22l25.08-61.94h-83.6ZM506.92,0l76-187.72h-72.2l15.96-39.14H598.5L614.46-266h84.36l-15.96,39.14H839.8L747.84,0H663.48L739.1-187.72H667.28L591.28,0Zm495.9-140.22h121.22l19-47.5H1021.82l15.96-39.14H1159L1174.58-266h84.74l-15.96,39.14h22.8l-7.6,19h84.74l-7.98,20.14H1227.78l-19.38,47.5h107.54L1284.4-61.94H1176.86L1151.78,0h-84.36l24.7-61.94H971.28Zm269.8-76L1292.76-266h42.56l-20.52,49.78Zm52.82,0L1345.58-266h42.56l-20.52,49.78Zm272.08-12.16,15.2-37.62,225.34,17.48-15.2,37.62Zm-34.58,85.5,15.2-37.62,199.12,15.58-15.2,37.62ZM1486.18-19.76,1516.58-95l251.56,19.76L1737.36,0Zm525.16-81.32,34.96-86.64h-34.96l15.58-39.14h34.96L2077.84-266h84.36l-15.96,39.14h72.2L2234.4-266h84.36l-15.58,39.14h36.86l-15.58,39.14h-37.24L2211.6,0h-84.74l76-187.72h-72.2l-34.96,86.64Zm460.18,39.14,31.54-78.28H2623.9l19.38-47.5H2522.06l15.96-39.14h120.84L2674.82-266h84.74l-15.96,39.14h107.54l-15.96,39.14H2728.02l-19.38,47.5h107.54l-31.54,78.28H2677.1L2652.02,0h-84.74l25.08-61.94Z" transform="translate(-12399 5642)" fill="#fff"/><path d="M110-328.35H275.55L298.65-385h122.1L398.2-328.35h42.35l-11,27.5H552.2L540.65-271.7H375.1L265.1,0H143L253-271.7H87.45ZM479.6-385H617.1l-29.15,72.05H449.9Zm88,42.9,5.5-13.2H499.4l-5.5,13.2ZM-22.55,0l78.1-192.5h122.1L100.1,0Zm331.1,0L386.1-192.5H508.75L430.65,0ZM1259.5-146.3H806.3l37.4-92.4h453.2ZM1486.65,0,1642.3-385h122.65l-59.4,146.3h236.5l-46.2,113.3H1659.9L1609.3,0Zm777.7-328.35,23.1-56.65h453.2L2585,0H2462.35L2594.9-328.35ZM2875.95,0l193.6-174.9h-127.6l22.55-56.65h132L3113-271.7h122.1l-15.95,40.15h37.95L3234-174.9h-37.95L3125.65,0H3003l24.75-60.5L2960.65,0Zm632.5-146.3,96.8-238.7h122.1L3631.1-146.3ZM3714.15,0,3869.8-385h122.1L3836.25,0ZM4129.4,0l300.85-271.7h-198l22.55-56.65h238.15l23.1-56.65h122.1l-23.1,56.65h53.9l-23.1,56.65H4592.5L4482.5,0H4360.4l84.15-208.45L4214.1,0Z" transform="translate(-13296 6268)" fill="#fff"/></g></svg>